<svg xmlns="http://www.w3.org/2000/svg" width="325" height="23" class="undefined">
  <style >
  .text{
    fill:#100520;
  }
  .icon{
    fill:#adabff;
  }
  </style>
  <g class="currentLayer">
    <path d="M248.9 0.4C245.1 1.2 241.2 5.2 240.7 9L240.6 9.8 241.9 9.8 243.2 9.8 243.4 9C245.1 2.6 252 0.6 256.2 5.3 256.9 6 257.9 7.9 258 8.7 258.2 9.7 258.3 9.8 259.7 9.8L261 9.8 260.8 9.1C260.4 6.5 258.5 3.5 256.3 2 254.1 0.6 251.4 0 248.9 0.4M272.8 0.4C269 0.9 265.6 3.9 264.3 8 263.7 9.8 263.8 10 265.3 10L266.5 10 266.8 9C268 4 273.1 1.3 277.3 3.4 278.4 3.9 280.1 5.5 280.1 6 280.1 6.4 280.6 6.3 281.4 5.7 282.4 5.1 282.5 4.9 281.7 3.8 279.6 1.2 276.4-0.1 272.8 0.4M293.6 0.4C290 1 286.5 4.2 285.5 7.8 285.3 8.2 285.2 8.7 285.1 9 284.8 9.8 284.9 9.8 286.3 9.7L287.7 9.7 287.9 8.9C289.9 0.7 300.4 0.8 302.6 9L302.8 9.8 304.1 9.8C305.7 9.8 305.8 9.8 304.6 7 302.8 2.4 298.2-0.4 293.6 0.4M0.3 0.6C0.3 0.7 2.3 5.8 3.1 7.6 3.2 7.9 3.4 8.4 3.5 8.6 3.5 8.8 3.7 9.1 3.8 9.4 3.9 9.6 4 10 4.1 10.2 4.2 10.4 4.3 10.8 4.5 11.1 4.6 11.4 5.3 13 5.9 14.7 7.1 17.5 7.6 18.6 7.6 18.1 7.6 18 7.8 17.4 8.1 16.8 8.8 15.3 8.8 15.2 7.4 11.8 7.3 11.5 7.2 11.2 7.1 11 7 10.8 6.9 10.5 6.8 10.2 6.7 10 6.5 9.6 6.4 9.4 6.4 9.2 5.8 7.6 5.1 5.9 4.4 4.2 3.7 2.3 3.4 1.7L3 0.5 1.6 0.5C0.8 0.4 0.3 0.5 0.3 0.6M17.6 0.6C17.5 0.7 17.4 0.9 17.4 1 17.4 1.1 17.3 1.4 17.2 1.7 17.1 1.9 16.5 3.4 15.9 4.9 15.4 6.3 14.8 7.7 14.7 7.9 14.4 8.7 14.5 8.5 12 14.9 10.1 19.7 9.6 21.1 9.3 21.6 8.9 22.3 9 22.5 10.3 22.4 11.1 22.4 11.5 22.3 11.6 22.1 11.7 21.8 12.1 21 12.3 20.5 12.3 20.3 12.5 19.9 12.7 19.6 12.8 19.3 13.6 17.2 14.5 15 15.4 12.8 16.2 10.8 16.4 10.4 16.5 10.1 16.7 9.7 16.8 9.5 16.8 9.3 17 8.9 17.2 8.6 17.3 8.3 17.8 7 18.3 5.9 18.7 4.7 19.2 3.5 19.3 3.2 19.5 2.9 19.7 2.2 20 1.7 20.2 1.1 20.4 0.6 20.3 0.6 20.2 0.4 17.9 0.4 17.6 0.6M28.5 0.6C28.4 0.7 28.3 0.9 28.3 1 28.3 1.1 28.1 1.5 27.9 1.9 27.8 2.3 27.6 2.7 27.6 2.8 27.6 2.9 27.5 3.1 27.5 3.2 27.4 3.3 27.1 3.8 26.9 4.4 26.7 4.9 26.5 5.4 26.4 5.5 26.3 5.6 26.3 5.8 26.3 5.9 26.3 6 26.1 6.5 25.9 6.9 25.7 7.3 25.5 7.8 25.4 8 25.4 8.2 25.2 8.6 25 8.9 24.9 9.3 24.2 10.9 23.5 12.7 22.8 14.4 22.1 16.1 22 16.4 21.7 17 21.5 17.5 21.3 18.1 21.2 18.3 21.1 18.7 21 18.9 20.3 20.4 19.6 22.2 19.8 22.3 19.8 22.4 20.4 22.4 21.1 22.4L22.3 22.4 22.6 21.6C22.8 21.1 22.9 20.7 23 20.7 23 20.6 23.1 20.4 23.1 20.3 23.1 20.2 23.2 19.8 23.4 19.4 23.6 19 24.1 17.7 24.6 16.4 25.1 15.2 25.5 14 25.6 13.9 25.7 13.7 26.6 11.3 27.7 8.5 28.8 5.8 29.7 3.4 29.8 3.2 30.9 0.5 30.9 0.4 29.6 0.4 29.1 0.4 28.6 0.5 28.5 0.6M43.1 8.8L43.1 17.1 44.4 17.1 45.7 17 45.7 8.8 45.7 0.5 44.4 0.5 43.1 0.4 43.1 8.8M61.3 6.1L61.3 11.8 61.6 11.4C61.8 11.2 62.4 10.5 63 10L63.9 9 63.9 4.7 63.9 0.5 62.6 0.5 61.3 0.4 61.3 6.1M74.1 1.9C73.3 2.7 72.4 3.7 72 4.1 71.7 4.5 70.4 5.9 69.3 7.1 68.1 8.3 65.8 10.8 64.2 12.5L61.3 15.7 61.3 19.1 61.3 22.4 62.6 22.4 63.9 22.4 63.9 19 64 15.6 65.9 13.7C66.9 12.6 67.8 11.8 67.9 11.8 68 11.8 69.1 13.2 70.4 15 71.8 16.8 73 18.5 73.1 18.7 73.3 18.9 73.8 19.5 74.2 20.1 74.6 20.7 75.1 21.2 75.1 21.3 75.2 21.3 75.4 21.6 75.6 21.9 76 22.4 76 22.4 77.3 22.4 78.7 22.4 78.9 22.3 78.3 21.7 78.1 21.5 77.8 21.1 77.6 20.8 77.4 20.4 77.2 20.1 77.1 20.1 77 20.1 76.1 18.9 75.1 17.5 74.1 16.1 72.7 14.4 72.2 13.7 69.2 9.8 69.4 10.3 70.5 9 70.8 8.7 71.3 8.2 71.7 7.8 72.4 6.9 76.7 2.1 77.6 1.3 78.3 0.5 78.3 0.4 76.8 0.4L75.5 0.4 74.1 1.9M79.7 0.6C79.7 0.6 80 1.3 80.5 2.2 81 3 81.4 3.6 81.4 3.7 81.4 3.7 82.2 4.9 83 6.4 85.1 9.8 85.4 10.2 85.7 10.9 86.2 11.7 86.4 11.6 87.3 10L87.6 9.4 86.2 7C85.4 5.6 84.7 4.3 84.5 3.9 84.3 3.6 83.9 2.9 83.5 2.3 83.1 1.7 82.8 1 82.7 0.9 82.5 0.5 79.9 0.2 79.7 0.6M95.4 1.4C95.1 1.9 94.4 3.1 93.9 4 93.3 4.9 92.5 6.2 92.1 6.9 91.7 7.6 91.3 8.4 91.1 8.7 90.9 9 90.6 9.5 90.5 9.8 90.3 10.1 89.6 11.3 89 12.4L87.9 14.4 87.9 18.4 87.9 22.4 89.1 22.4 90.4 22.4 90.4 18.4 90.5 14.4 92.4 11.2C93.5 9.4 94.4 7.9 94.5 7.7 94.6 7.5 95.6 5.8 96.7 4 97.9 2.1 98.8 0.6 98.8 0.5 98.8 0.5 98.1 0.4 97.4 0.4L96 0.4 95.4 1.4M102.1 11.4L102.1 22.4 103.4 22.4 104.7 22.4 104.8 18.4 104.9 14.5 106.1 14.5C106.9 14.4 107.4 14.4 107.4 14.4 107.4 13.8 106.1 12.2 105.5 12.1L104.9 12 104.8 7.5C104.8 4 104.8 3 105 2.9 105.6 2.5 112 2.8 112.9 3.2 117.3 5.4 115.8 12.1 110.9 12.1 110.1 12.1 109.4 12.1 109.4 12.2 109.4 12.4 110.3 13.8 111.9 16.3 112.8 17.7 113.7 19 113.7 19.1 113.8 19.3 114.3 20.1 114.9 20.9L115.9 22.4 117.3 22.4C119 22.4 118.9 22.5 118.3 21.5 118 21.1 117.8 20.7 117.8 20.7 117.8 20.6 117.3 19.9 116.8 19.1 115.4 17.1 113.8 14.3 113.8 14.1 113.8 14.1 114.2 13.8 114.7 13.5 117.2 12.3 118.9 8 117.9 5.5 116.1 1.1 114.8 0.4 107.3 0.4L102.1 0.4 102.1 11.4M122.7 0.6C122.6 0.8 122.6 5.7 122.6 11.6L122.7 22.4 124 22.4 125.3 22.4 125.3 11.4 125.3 0.4 124 0.4C123.2 0.4 122.7 0.5 122.7 0.6M136.3 3.4C135.6 5 134.9 6.7 134.7 7.2 134.5 7.6 134.1 8.7 133.8 9.4 133.5 10.2 133.2 10.9 133.1 11 133 11.1 132.9 11.3 132.9 11.4 132.9 11.5 132.8 12 132.6 12.4 132.4 12.8 132.2 13.3 132.1 13.5 132 13.7 131.9 14.1 131.7 14.4 131.6 14.8 130.9 16.4 130.2 18.2 129.5 19.9 128.8 21.6 128.7 21.8 128.4 22.4 128.5 22.5 130 22.4 130.8 22.4 131.2 22.3 131.3 22.1 131.4 22 132.3 19.6 133.4 16.9 134.4 14.1 135.4 11.7 135.5 11.4 135.8 10.7 135.9 10.5 137.4 6.5 138.7 3.1 139.6 0.8 139.6 0.6 139.6 0.5 139.1 0.4 138.5 0.4L137.5 0.4 136.3 3.4M159 4.7L159 9 160.3 9 161.5 9 161.6 5.9 161.7 2.9 165.1 2.8C169 2.8 169.3 2.8 170.4 3.9 172.4 5.7 172.5 9 170.6 11 169.7 12 169.6 12 164.1 12.1L159 12.2 159 17.3 159 22.4 160.3 22.4 161.5 22.4 161.6 18.4 161.7 14.5 165.8 14.4C170.4 14.3 171.2 14.1 172.6 12.7 176.3 8.6 174.9 2.4 169.9 0.7 169.2 0.5 168.3 0.4 164 0.4L158.9 0.4 159 4.7M178.5 0.6C178.5 0.8 178.5 5.7 178.5 11.6L178.5 22.4 179.7 22.4 180.9 22.4 180.9 18.6C180.9 14.2 180.8 14.5 182.6 14.4L183.8 14.4 183 13.2C182.3 12.2 182.2 12.1 181.7 12.1 181.3 12.1 181.1 12 181 11.8 180.8 11.3 180.9 3.2 181.1 3 181.5 2.6 188.1 2.7 189 3.1 192.4 4.5 192.6 10.1 189.4 11.7 188.8 12 188.4 12.1 187.2 12.1 185.4 12.1 185.4 12.1 186.6 13.8 187.1 14.5 188.2 16.3 189 17.6 189.9 18.9 190.9 20.6 191.3 21.2L192.1 22.4 193.5 22.4C195.1 22.4 195.1 22.4 194.4 21.2 194.1 20.7 193.6 19.9 193.2 19.4 192.9 18.9 192.2 17.7 191.5 16.8 190.4 15 189.9 14.1 190 14 190 14 190.4 13.8 190.8 13.6 195.7 11.4 195.5 3.6 190.5 1.1L189.4 0.5 184 0.5C179.7 0.4 178.6 0.5 178.5 0.6M221.2 0.5C221.2 0.6 221.1 1.1 221.1 1.7L221.1 2.8 230.2 2.8 239.3 2.8 239.2 1.6 239.2 0.5 230.3 0.5C225.3 0.5 221.3 0.5 221.2 0.5M309.6 8.8L309.6 17.1 310.9 17.1 312.3 17.1 312.3 8.8 312.3 0.4 310.9 0.4 309.6 0.4 309.6 8.8M31.8 4.5C31.6 4.9 31.4 5.4 31.4 5.5 31.4 5.6 31.4 5.8 31.3 5.9 30.8 6.1 31.2 7.6 32.6 10.9 32.7 11.2 32.9 11.5 33 11.7 33.2 12.4 33.4 12.8 33.6 13.3 33.8 13.9 33.8 13.9 30.8 13.9L28.1 13.9 27.9 14.6C27.4 16 27.2 15.9 31 15.9L34.4 15.9 34.7 16.7C34.9 17.2 35.5 18.6 36 20L37 22.4 38.3 22.4C39 22.4 39.6 22.4 39.7 22.3 39.7 22.2 37.7 16.9 36.9 15.3 36.8 15 36.7 14.7 36.6 14.5 36.5 14.3 36.3 13.8 36.1 13.4 35.9 13 35.8 12.5 35.8 12.4 35.8 12.3 35.7 12.1 35.6 12 35.5 11.9 35.2 11.2 34.9 10.4 34.6 9.7 34.2 8.6 34 8.2 33.8 7.7 33.3 6.6 32.9 5.6 32.5 4.6 32.2 3.8 32.2 3.8 32.1 3.7 32 4.1 31.8 4.5M140.6 4.9C140.3 5.5 140.1 6.2 140 6.4 139.9 6.7 140.2 7.4 141.9 11.7 142.8 14.1 143 13.9 139.8 13.9L137.1 13.9 136.9 14.5C136.7 14.8 136.6 15.2 136.5 15.5L136.4 15.9 139.9 16 143.3 16 143.8 17.3C144.1 18 144.4 18.6 144.5 18.7 144.5 18.8 144.6 18.9 144.6 19.1 144.6 19.2 144.8 19.6 144.9 20 145.1 20.4 145.3 20.7 145.3 20.8 145.3 20.9 145.4 21.3 145.6 21.7L146 22.4 147.3 22.4C148.3 22.4 148.6 22.4 148.6 22.2 148.6 22 147.8 20 147.2 18.4 147 18.1 146.8 17.7 146.8 17.5 146.7 17.3 146.5 16.9 146.4 16.6 146.2 16.3 145.6 14.6 144.9 12.9 143.5 9.6 143.4 9.2 142.8 7.9 142.6 7.5 142.4 7 142.4 6.9 142.4 6.8 142.4 6.6 142.3 6.5 142.2 6.4 142 5.9 141.8 5.4 141.1 3.6 141 3.6 140.6 4.9M229 5.8C229 5.9 228.9 9.7 229 14.2L229 22.4 230.3 22.4 231.5 22.4 231.6 14.1C231.6 7.6 231.6 5.8 231.4 5.7 231 5.5 229.1 5.6 229 5.8M240.6 13.3C240.6 16.6 243.8 20.6 247.5 22 251.5 23.6 257.4 21.4 259.3 17.8 259.4 17.6 259.6 17.3 259.6 17.3 259.7 17.1 260.2 16 260.5 15.2 261.3 13 261.2 12.7 259.6 12.8L258.4 12.9 258.1 14C255.9 22.3 245.5 22.1 243.4 13.8L243.1 12.9 241.9 12.8 240.6 12.8 240.6 13.3M264 12.9C263.7 13.2 264.5 15.8 265.4 17.4 268.9 23.2 276.7 24.3 281.3 19.8 283 18 283.1 17.7 281.5 16.9L280.7 16.4 280.4 16.9C276.4 22.5 268.3 20.6 266.7 13.7L266.5 12.8 265.3 12.8C264.7 12.8 264.1 12.8 264 12.9M284.9 13C284.9 13.1 285 13.6 285.2 14.1 287.8 25 301.7 25.5 305.1 14.8 305.3 14.2 305.4 13.5 305.4 13.2L305.4 12.8 304.1 12.8C302.8 12.8 302.8 12.8 302.7 13.2 301.2 21.1 291.9 22.7 288.5 15.7 288.2 15 287.9 14.4 287.9 14.2 287.9 14.1 287.8 13.8 287.7 13.4L287.5 12.8 286.2 12.8C285.3 12.8 284.9 12.8 284.9 13M43.1 21.3L43.1 22.4 50.6 22.4 58 22.4 58.1 21.2 58.1 20.1 50.6 20.1 43.1 20.1 43.1 21.3M309.6 21.2L309.7 22.4 317.2 22.4 324.7 22.4 324.7 21.2 324.8 20.1 317.2 20.1 309.6 20.1 309.6 21.2" class="text" />
    <path d="M0 0.3C-0.1 0.5 0 0.9 0.5 1.9 0.7 2.3 0.9 2.8 0.9 3 1 3.2 1.2 3.6 1.3 3.9 1.5 4.4 1.7 5 2 5.6 2 5.8 2.2 6.1 2.3 6.4 2.4 6.6 2.5 6.9 2.6 7.1 2.7 7.3 2.8 7.8 3 8.1 3.1 8.4 3.8 10 4.4 11.7 5.1 13.3 5.8 15 6 15.4 6.2 15.8 6.4 16.4 6.5 16.6 6.6 16.8 6.7 17.1 6.8 17.3 6.9 17.5 6.9 17.7 6.9 17.8 6.9 18.5 7.6 18.6 7.9 18 8 17.6 8.3 17 8.5 16.6 8.9 15.9 8.9 14.8 8.6 14.2 8.5 13.8 8.2 13.1 8 12.6 7.9 12.4 7.7 12 7.6 11.7 7.3 11.1 7.2 10.8 6.8 9.5 6.3 8.3 6.2 8 6 7.4 5.9 7.2 5.4 5.9 4.9 4.6 3.6 1.5 3.7 1.6 3.3 0.9L3 0.2 1.6 0.1C0.7 0.1 0.1 0.2 0 0.3M17.3 0.8C17.1 1.3 16.7 2.3 16.3 3.1 16 4 15.7 4.9 15.6 5.1 15.5 5.3 15.3 5.7 15.2 5.9 15.2 6.1 15 6.4 15 6.6 14.9 6.8 14.7 7.2 14.6 7.4 14.5 7.7 14.4 8.1 14.3 8.4 14.2 8.8 14 9.2 13.9 9.4 13.6 10.1 13.4 10.7 13.3 11 13 11.8 12.5 13.1 12.2 13.5 12.2 13.6 12.1 13.9 12.1 14.1 12.1 14.2 12 14.4 12 14.5 11.9 14.6 11.5 15.6 11 16.7 10.6 17.8 10.1 18.9 10 19.2 8.5 22.6 8.6 22.8 10.3 22.8 11.4 22.8 11.8 22.5 12.2 21.4 12.3 21 12.6 20.4 12.7 20.1 12.9 19.8 13 19.4 13.1 19.2 13.2 19 13.3 18.7 13.4 18.4 13.5 18.2 13.6 17.8 13.7 17.6 13.8 17.4 14 17 14.1 16.7 14.3 16.3 14.4 16 14.8 15.1 14.8 14.9 15 14.4 15.2 14.1 15.3 13.8 15.9 12.3 16.5 10.8 17.1 9.3 17.7 7.8 17.9 7.4 18.2 6.7 18.4 6.1 18.6 5.6 18.7 5.4 18.8 5.1 18.9 4.9 19 4.6 19.2 4.2 19.3 4 19.4 3.8 19.5 3.4 19.6 3.2 19.7 3 19.8 2.6 19.9 2.4 20 2.2 20.2 1.7 20.3 1.4 20.9 0.2 20.8 0.1 19.1 0.1L17.6 0.1 17.3 0.8M28.5 0.2C28.4 0.3 28.1 0.8 27.9 1.3 27.7 1.8 27.5 2.4 27.3 2.8 27.2 3.1 27 3.5 26.9 3.7 26.8 4.1 26.5 4.7 26.3 5.3 26.2 5.6 26 5.9 26 6.1 25.9 6.3 25.7 6.7 25.6 7 25.5 7.3 25.3 7.7 25.3 7.9 25.2 8 25 8.5 24.8 9 24.6 9.4 24.4 9.8 24.4 9.9 24.4 9.9 24.3 10.3 24.1 10.7 23.5 12 23.4 12.3 22.2 15.3 21.6 16.8 21 18.3 20.8 18.6 20.4 19.5 20.2 20.2 19.7 21.3 19.6 21.5 19.5 21.8 19.4 22 19.1 22.5 19.7 22.8 20.8 22.8 22.4 22.8 22.4 22.7 23.2 20.6 24.1 18.4 24.2 18.2 24.4 17.6 24.5 17.3 24.7 16.9 24.8 16.6 24.9 16.4 25 16.1 25.1 15.9 25.2 15.7 25.3 15.5 25.3 15.4 25.3 15.2 25.3 15 25.4 14.8 25.6 14.5 25.8 13.9 26.1 13.1 26.2 12.9 26.4 12.5 26.5 12.3 26.6 12 26.7 11.7 26.8 11.5 26.8 11.3 27 10.8 27.2 10.4 27.4 9.9 27.9 8.6 28.4 7.5 28.8 6.4 29.2 5.3 29.3 5.1 29.5 4.5 29.7 4.1 29.9 3.4 30.2 2.8 30.4 2.1 30.6 1.8 30.7 1.6 30.8 1.2 30.8 0.8L31 0.1 29.8 0.1C29.2 0.1 28.6 0.2 28.5 0.2M42.9 0.5C42.7 1.2 42.8 16.8 42.9 17.1 43.1 17.5 45.4 17.6 45.7 17.2 45.9 17 46 0.9 45.8 0.4 45.7-0.1 43 0 42.9 0.5M74.8 0.8C74.5 1.2 73.8 1.8 73.4 2.3 73 2.7 71.9 3.9 71 4.8 70.1 5.8 69.1 6.9 68.8 7.3 68.4 7.6 67.5 8.7 66.6 9.6 65.7 10.6 64.4 12 63.6 12.8 62.8 13.7 61.9 14.6 61.6 15L61.1 15.6 61.1 19.1C61.1 23.1 61 22.8 62.7 22.8 64.3 22.8 64.3 22.8 64.3 19L64.3 15.7 66.1 13.8C67.1 12.7 67.9 11.9 67.9 12 67.9 12.1 68.1 12.3 68.2 12.5 68.4 12.7 69.4 14.1 70.6 15.6 71.7 17.1 72.7 18.5 72.8 18.6 72.9 18.7 73.2 19.1 73.4 19.4 73.7 19.8 73.9 20.1 73.9 20.1 74 20.1 74.3 20.5 74.6 20.9 75.7 22.6 75.9 22.8 77.3 22.8 79 22.8 79.3 22.4 78.5 21.5 78.3 21.3 78 20.9 77.8 20.6 77.5 20.3 77.3 20 77.3 19.9 77.2 19.8 76.6 19.1 74.5 16.4 73.6 15.2 72.8 14.1 72.8 14.1 72.7 14.1 72.5 13.8 72.3 13.4 72 13.1 71.8 12.7 71.7 12.6 69.8 10.3 69.8 10.2 70.6 9.3 70.9 9 71.7 8 72.4 7.3 73.1 6.5 73.8 5.7 73.9 5.6 74.1 5.5 74.8 4.7 75.5 3.9 76.3 3 77.2 2 77.6 1.5 78.8 0.3 78.8 0.1 76.9 0.1L75.5 0.1 74.8 0.8M79.3 0.3C79.3 0.5 79.5 0.9 79.8 1.3 80 1.7 80.3 2.1 80.3 2.2 80.3 2.2 80.5 2.6 80.8 3 81 3.4 81.3 3.8 81.3 3.8 81.3 3.9 81.5 4.4 81.9 4.9 82.2 5.4 82.6 6.1 82.8 6.4 82.9 6.7 83.2 7.1 83.3 7.3 83.4 7.5 83.6 7.7 83.6 7.8 83.6 7.8 83.8 8 83.9 8.2 84 8.4 84.2 8.8 84.3 9 84.4 9.2 84.6 9.4 84.6 9.4 84.7 9.5 85 10.1 85.5 11 86.1 12.1 86.3 12.1 87.1 10.8 87.8 9.6 87.9 9.1 87.6 8.8 87.5 8.8 87.2 8.2 86.8 7.6 86.5 7 86.1 6.3 85.9 6 85.6 5.4 85.2 4.7 84.7 3.9 84.6 3.7 84.5 3.5 84.4 3.4 84.4 3.4 84.2 3.1 84.1 2.9 84 2.6 83.7 2 83.4 1.7 83.1 1.3 82.9 0.9 82.9 0.8 82.9 0.1 79.6-0.3 79.3 0.3M95.7 0.4C95.6 0.6 95.4 0.9 95.3 1.2 95.1 1.5 95 1.7 94.9 1.8 94.9 1.8 94.7 2.2 94.4 2.5 94.2 2.9 93.6 4 93 5 92.4 6 91.7 7.1 91.6 7.4 91 8.4 90.6 9.1 90.2 9.7 90.1 10.1 89.8 10.5 89.6 10.8 89.4 11 89.3 11.3 89.3 11.3 89.3 11.3 88.9 12 88.4 12.9L87.6 14.4 87.6 18.4C87.6 23 87.5 22.8 89.2 22.8 90.9 22.8 90.8 23 90.8 18.5 90.8 14.7 90.9 13.6 91.3 13.6 91.4 13.6 91.4 13.5 91.4 13.5 91.4 13.4 92.1 12.1 93 10.7 93.9 9.3 94.6 8 94.6 7.9 94.6 7.8 94.7 7.8 94.7 7.8 94.8 7.8 94.9 7.6 95 7.5 95 7.3 95.3 6.8 95.6 6.4 95.9 5.9 96.2 5.4 96.2 5.2 96.3 5.1 96.4 4.9 96.5 4.9 96.5 4.9 96.6 4.9 96.6 4.8 96.6 4.7 96.8 4.3 97.1 3.9 97.4 3.5 97.6 3.1 97.6 3 97.6 3 97.9 2.5 98.3 1.9 99.3 0.2 99.2 0.1 97.5 0.1 96.3 0.1 95.9 0.2 95.7 0.4M102 0.3C102 0.4 102 5.5 102 11.6L102 22.7 103.3 22.7C105.2 22.8 105.1 23 105.1 18.4L105.1 14.6 106.3 14.6C107.8 14.6 107.9 14.5 107.3 13.7 107.1 13.4 106.9 13 106.9 12.9 106.9 12.8 106.9 12.8 106.8 12.8 106.7 12.8 106.6 12.7 106.6 12.5 106.6 12.2 106 11.8 105.5 11.8L105.1 11.8 105.1 7.4 105.2 3 108.4 3C113.1 2.9 113.8 3.3 115.1 6.3 115.4 7.2 115.3 8.7 114.7 9.8 114.5 10 114.4 10.3 114.3 10.4 114.1 11.2 112.7 11.8 111.1 11.8 108.6 11.8 108.5 11.5 111.4 15.9 112.4 17.5 113.3 18.8 113.3 18.9 113.3 19 113.3 19.1 113.4 19.1 113.5 19.1 113.6 19.2 113.6 19.3 113.6 19.4 113.8 19.7 113.9 19.9 114.1 20.1 114.3 20.3 114.3 20.3 114.3 20.5 115.6 22.5 115.8 22.6 116.2 22.9 118.8 22.8 118.9 22.5 119 22.3 118.6 21.3 118.4 21.3 118.4 21.3 118.2 21 118.1 20.8 118 20.5 117.8 20.3 117.7 20.3 117.7 20.3 117.6 20.2 117.6 20.1 117.6 20 117 19.1 116.3 18 114 14.5 113.8 13.9 114.4 13.9 114.9 13.9 117.3 12 117.3 11.5 117.3 11.4 117.4 11.2 117.6 10.9 117.8 10.7 117.9 10.4 117.9 10.2 117.9 10 118 9.7 118.1 9.6 118.9 8.8 118.2 4.8 117 3.1 115.8 1.5 114.6 0.7 112.6 0.3 111.4 0 102.1 0 102 0.3M122.5 0.3C122.5 0.4 122.5 5.5 122.5 11.6L122.5 22.7 123.9 22.7 125.4 22.7 125.4 11.4 125.4 0.2 124 0.1C123 0.1 122.6 0.1 122.5 0.3M137.2 0.5C137.1 0.7 136.9 1 136.9 1.1 136.9 1.2 136.9 1.4 136.8 1.6 136.7 1.7 136.6 2 136.5 2.3 136.4 2.5 136.1 3 136 3.5 135.8 3.9 135.6 4.4 135.6 4.5 135.6 4.6 135.5 4.8 135.5 4.9 135.4 4.9 135.1 5.5 134.9 6.2 134.6 6.8 134.2 7.7 134.1 8.1 133.7 8.9 133.5 9.3 133.3 10 132.9 11 132.6 11.8 132.1 12.8 131.9 13.2 131.8 13.7 131.8 13.8 131.8 14 131.7 14.1 131.6 14.1 131.5 14.1 131.4 14.2 131.4 14.4 131.4 14.6 131.4 14.8 131.3 14.9 131.2 14.9 131.1 15.1 131.1 15.4 131.1 15.6 131 15.8 130.9 15.8 130.8 15.8 130.8 15.9 130.8 16 130.8 16.2 130.7 16.4 130.6 16.6 130.5 16.7 130.4 17 130.3 17.3 130.1 17.8 129.9 18.4 129.5 19.3 127.9 22.8 127.9 22.8 129.8 22.8 131.1 22.8 131.6 22.5 131.6 22 131.6 21.9 131.7 21.6 131.7 21.5 131.8 21.3 132 21 132.1 20.8 132.1 20.5 132.3 20.1 132.4 19.9 132.6 19.6 132.7 19.2 132.8 19 134.1 15.6 134.8 13.8 134.9 13.6 135 13.4 135.1 13.2 135.1 13.1 135.1 13 135.2 12.6 135.4 12.2 135.6 11.8 135.8 11.3 135.9 10.9 136.1 10.3 136.3 10 136.6 9.1 136.7 8.9 136.9 8.5 137 8.3 137.1 8 137.2 7.7 137.3 7.4 137.6 6.8 137.7 6.4 137.9 5.8 138 5.4 138.3 4.9 138.5 4.5 138.6 4.1 138.8 3.7 138.8 3.6 138.8 3.4 138.8 3.3 138.9 3.2 139.2 2.9 140 0.4 139.9 0.3 139.6-0.1 137.5 0.1 137.2 0.5M158.7 0.3C158.6 0.4 158.6 2.5 158.6 4.9L158.7 9.4 160.2 9.4 161.7 9.4 161.8 6.2 161.9 3 164.9 3C169.3 2.9 170 3.2 171.3 5.4 171.9 6.4 171.8 8.6 171.3 9.7 170.8 10.6 170.8 10.7 169.9 11.3L169.3 11.8 164.3 11.8C161.1 11.8 159.1 11.8 158.9 11.9 158.6 12.1 158.6 12.3 158.6 17.3 158.6 22.2 158.6 22.4 158.9 22.6 159.3 22.8 160.8 22.8 161.4 22.7L161.8 22.6 161.8 18.6 161.8 14.6 165.9 14.6C168.1 14.6 170.1 14.5 170.2 14.5 170.4 14.4 170.9 14.1 171.3 13.9 174.3 12.5 175.8 7.7 174.3 4.5 174 3.9 173.6 3.3 173.6 3.3 173.5 3.3 173.4 3.2 173.4 3.1 173.4 2.3 170.7 0.6 169 0.3 167.6 0 158.8 0 158.7 0.3M178.3 0.3C178.1 0.5 178.1 3.2 178.1 11.5 178.1 24 177.9 22.8 179.7 22.8 181.3 22.8 181.3 22.9 181.3 18.5L181.4 14.7 182.5 14.6C184.2 14.6 184.2 14.6 183.4 13.4 183.1 12.9 182.8 12.3 182.7 12.3 182.7 12.2 182.4 12 182 11.9L181.4 11.6 181.4 7.3 181.4 3 184.6 3C187.8 2.9 188.1 3 189.3 3.5 189.8 3.7 190.6 4.6 190.9 5.2 191 5.5 191.2 5.8 191.3 6 191.5 6.4 191.5 8.9 191.3 9 191.2 9.1 191.1 9.2 191.1 9.4 191.1 10.7 189.3 11.8 187.2 11.8 184.7 11.8 184.6 11.3 188.7 17.6 189.1 18.1 189.5 18.7 189.6 19 189.7 19.2 189.9 19.4 190 19.4 190 19.4 190.1 19.5 190.1 19.6 190.1 19.7 190.4 20.2 190.8 20.8 191.1 21.3 191.4 21.8 191.4 21.8 191.4 22.4 192.2 22.7 193.5 22.7 195.1 22.8 195.5 22.6 195.1 22 194.6 21.1 194.4 20.7 194.2 20.5 194.1 20.4 193.9 20 193.6 19.6 193.4 19.2 192.6 18.1 192 17.1 191.4 16.2 190.9 15.3 190.9 15.3 190.9 15.2 190.9 15.1 190.8 15.1 190.7 15.1 190.3 14.3 190.3 14.1 190.3 14 190.4 13.9 190.5 13.9 191.8 13.9 194.1 11.2 194.5 9.2 195.4 5.1 192.9 1.1 188.8 0.3 187.5 0 178.6 0 178.3 0.3M206.9 0.4C194.1 2.7 194.6 20.8 207.5 22.6 213.5 23.4 219.9 18 219.9 12.1L219.9 11.4 219.1 11.5 218.2 11.5 218 12.6C216.1 22.8 202.4 23.7 199.6 13.8 197.3 5.4 207.6-1.4 214.4 4 215.3 4.7 215.4 4.7 216 4.1 217.7 2.3 211-0.4 206.9 0.4M221 0.2C221 0.3 220.9 0.9 220.9 1.6L220.9 2.9 230.1 2.9 239.4 2.9 239.4 1.9C239.4 1.3 239.4 0.7 239.4 0.5L239.3 0.1 230.2 0.1C225.2 0.1 221.1 0.2 221 0.2M248.4 0.3C247.5 0.6 247.2 0.7 246.4 1.1 245.9 1.3 245.4 1.6 245.3 1.7 245.1 1.8 244.7 2.2 244.3 2.5 243.9 2.8 243.3 3.4 243 3.8 242.7 4.2 242.3 4.6 242.2 4.8 241.4 5.7 240.4 8.3 240.4 9.3L240.4 10 241.8 10.1 243.3 10.1 243.5 9.5C243.7 9.2 243.8 8.8 243.8 8.6 243.8 8.4 243.8 8.1 243.9 7.9 244 7.7 244.2 7.5 244.3 7.3 244.7 6.4 244.9 6.1 245.9 5.1 246.9 4.1 247.6 3.7 249 3.1 252.2 1.8 256.6 4.6 257.8 8.7 258.2 10.2 258.1 10.1 259.7 10.1L261.2 10 261.2 9.5C261.1 8.9 261 8.1 260.8 7.6 260.7 7.4 260.5 7.1 260.4 6.8 260.1 5.9 259.6 5.2 259 4.4 258.4 3.5 257.5 2.6 256.8 2.1 256.4 1.9 256.1 1.7 256.1 1.6 255.9 1.4 253.8 0.5 253.2 0.3 252.3 0.1 249 0.1 248.4 0.3M271.9 0.3C270.9 0.5 269 1.3 268.8 1.6 268.7 1.6 268.5 1.8 268.2 1.9 266.4 2.8 264.1 6.7 263.7 9.3L263.6 10.1 264.1 10.2C264.4 10.2 265.1 10.3 265.7 10.2L266.6 10.2 266.8 9.5C267 9.2 267.2 8.5 267.3 8.1 267.4 7.7 267.6 7.2 267.8 6.9 268 6.7 268.1 6.4 268.1 6.3 268.1 6 270.4 4 271.1 3.7 272.5 3 272.8 2.9 274.1 2.9 275.2 2.9 276.1 3.1 276.8 3.5 277 3.5 277.2 3.6 277.3 3.6 277.7 3.6 279.5 5.3 279.8 6.1 280.1 6.5 280.2 6.6 280.5 6.5 281.1 6.3 282.6 5.2 282.6 5 282.6 4.6 280.7 2.1 280.4 2.1 280.3 2.1 280.1 2 279.9 1.8 279.6 1.5 278.5 0.9 277.7 0.6 276.3 0.1 273.3-0.1 271.9 0.3M293.1 0.3C293 0.4 292.7 0.4 292.6 0.4 292.2 0.4 289.9 1.5 289.9 1.6 289.9 1.7 289.8 1.8 289.7 1.8 289.1 1.8 286.1 5.1 286.1 5.7 286.1 5.8 286 5.9 285.9 5.9 285.8 5.9 285.8 6 285.8 6.2 285.8 6.3 285.6 6.6 285.5 6.9 285.1 7.7 284.9 8.6 284.9 9.4L284.9 10 286.2 10.1C287.7 10.1 288.1 10 288.1 9.2 288.1 7.8 289.9 5.1 291.5 4.1 295 1.8 299.8 3.2 301.6 7 301.8 7.5 302 8 302.1 8.1 302.2 8.3 302.3 8.6 302.3 8.8 302.3 9.8 302.7 10.1 304.2 10.1L305.6 10.1 305.6 9.5C305.6 8.8 304.9 6.7 304.4 5.8 302.8 3 300.7 1.3 297.6 0.3 296.9 0.1 293.4 0 293.1 0.3M309.5 0.2C309.3 0.5 309.4 17.2 309.7 17.3 310.2 17.5 312.2 17.4 312.4 17.2 312.6 17 312.7 0.9 312.5 0.4 312.4 0.1 309.8 0 309.5 0.2M61.2 0.4C61 0.6 61.1 11.7 61.3 11.8 61.4 11.9 61.6 11.8 61.8 11.6 62 11.3 62.7 10.7 63.2 10.1L64.3 9 64.3 4.8C64.3 1.8 64.2 0.6 64.1 0.5 63.9 0.3 61.4 0.2 61.2 0.4M254 0.8C257.4 2.1 260.3 5.6 260.8 9.1L261 9.8 259.7 9.8C258.3 9.8 258.2 9.7 258 8.7 257.9 7.9 256.9 6 256.2 5.3 252 0.6 245.1 2.6 243.4 9L243.2 9.8 241.9 9.8 240.6 9.8 240.7 9C241.5 3 248.5-1.3 254 0.8M277.1 0.7C279.1 1.3 280.4 2.1 281.7 3.8 282.5 4.9 282.4 5.1 281.4 5.7 280.6 6.3 280.1 6.4 280.1 6 280.1 5.5 278.4 3.9 277.3 3.4 273.1 1.3 268 4 266.8 9L266.5 10 265.3 10C263.8 10 263.7 9.8 264.3 8 266.1 2.2 271.6-0.9 277.1 0.7M297.1 0.4C300.5 1.2 303.3 3.7 304.6 7 305.8 9.8 305.7 9.8 304.1 9.8L302.8 9.8 302.6 9C300.4 0.8 289.9 0.7 287.9 8.9L287.7 9.7 286.3 9.7C284.9 9.8 284.8 9.8 285.1 9 285.2 8.7 285.3 8.2 285.5 7.8 286.9 2.8 292.3-0.6 297.1 0.4M3.4 1.7C3.7 2.3 4.4 4.2 5.1 5.9 5.8 7.6 6.4 9.2 6.4 9.4 6.5 9.6 6.7 10 6.8 10.2 6.9 10.5 7 10.8 7.1 11 7.2 11.2 7.3 11.5 7.4 11.8 8.8 15.2 8.8 15.3 8.1 16.8 7.8 17.4 7.6 18 7.6 18.1 7.6 18.6 7.1 17.5 5.9 14.7 5.3 13 4.6 11.4 4.5 11.1 4.3 10.8 4.2 10.4 4.1 10.2 4 10 3.9 9.6 3.8 9.4 3.7 9.1 3.5 8.8 3.5 8.6 3.4 8.4 3.2 7.9 3.1 7.6 2.3 5.8 0.3 0.7 0.3 0.6 0.3 0.5 0.8 0.4 1.6 0.5L3 0.5 3.4 1.7M20.3 0.6C20.4 0.6 20.2 1.1 20 1.7 19.7 2.2 19.5 2.9 19.3 3.2 19.2 3.5 18.7 4.7 18.3 5.9 17.8 7 17.3 8.3 17.2 8.6 17 8.9 16.8 9.3 16.8 9.5 16.7 9.7 16.5 10.1 16.4 10.4 16.2 10.8 15.4 12.8 14.5 15 13.6 17.2 12.8 19.3 12.7 19.6 12.5 19.9 12.3 20.3 12.3 20.5 12.1 21 11.7 21.8 11.6 22.1 11.5 22.3 11.1 22.4 10.3 22.4 9 22.5 8.9 22.3 9.3 21.6 9.6 21.1 10.1 19.7 12 14.9 14.5 8.5 14.4 8.7 14.7 7.9 14.8 7.7 15.4 6.3 15.9 4.9 16.5 3.4 17.1 1.9 17.2 1.7 17.3 1.4 17.4 1.1 17.4 1 17.4 0.5 20.1 0.1 20.3 0.6M30.6 0.7C30.6 1 30.3 1.8 29.8 3.2 29.7 3.4 28.8 5.8 27.7 8.5 26.6 11.3 25.7 13.7 25.6 13.9 25.5 14 25.1 15.2 24.6 16.4 24.1 17.7 23.6 19 23.4 19.4 23.2 19.8 23.1 20.2 23.1 20.3 23.1 20.4 23 20.6 23 20.7 22.9 20.7 22.8 21.1 22.6 21.6L22.3 22.4 21.1 22.4C20.4 22.4 19.8 22.4 19.8 22.3 19.6 22.2 20.3 20.4 21 18.9 21.1 18.7 21.2 18.3 21.3 18.1 21.5 17.5 21.7 17 22 16.4 22.1 16.1 22.8 14.4 23.5 12.7 24.2 10.9 24.9 9.3 25 8.9 25.2 8.6 25.4 8.2 25.4 8 25.5 7.8 25.7 7.3 25.9 6.9 26.1 6.5 26.3 6 26.3 5.9 26.3 5.8 26.3 5.6 26.4 5.5 26.5 5.4 26.7 4.9 26.9 4.4 27.1 3.8 27.4 3.3 27.5 3.2 27.5 3.1 27.6 2.9 27.6 2.8 27.6 2.7 27.8 2.3 27.9 1.9 28.1 1.5 28.3 1.1 28.3 1 28.3 0.6 28.7 0.4 29.6 0.4 30.5 0.4 30.6 0.5 30.6 0.7M45.7 8.8L45.7 17 44.4 17.1 43.1 17.1 43.1 8.8 43.1 0.4 44.4 0.5 45.7 0.5 45.7 8.8M63.9 4.7L63.9 9 63 10C62.4 10.5 61.8 11.2 61.6 11.4L61.3 11.8 61.3 6.1 61.3 0.4 62.6 0.5 63.9 0.5 63.9 4.7M78.1 0.6C78.1 0.6 77.9 0.9 77.6 1.3 76.7 2.1 72.4 6.9 71.7 7.8 71.3 8.2 70.8 8.7 70.5 9 69.4 10.3 69.2 9.8 72.2 13.7 72.7 14.4 74.1 16.1 75.1 17.5 76.1 18.9 77 20.1 77.1 20.1 77.2 20.1 77.4 20.4 77.6 20.8 77.8 21.1 78.1 21.5 78.3 21.7 78.9 22.3 78.7 22.4 77.3 22.4 76 22.4 76 22.4 75.6 21.9 75.4 21.6 75.2 21.3 75.1 21.3 75.1 21.2 74.6 20.7 74.2 20.1 73.8 19.5 73.3 18.9 73.1 18.7 73 18.5 71.8 16.8 70.4 15 69.1 13.2 68 11.8 67.9 11.8 67.8 11.8 66.9 12.6 65.9 13.7L64 15.6 63.9 19 63.9 22.4 62.6 22.4 61.3 22.4 61.3 19.1 61.3 15.7 64.2 12.5C65.8 10.8 68.1 8.3 69.3 7.1 70.4 5.9 71.7 4.5 72 4.1 72.4 3.7 73.3 2.7 74.1 1.9L75.5 0.4 76.8 0.4C77.5 0.4 78.1 0.5 78.1 0.6M82.7 0.9C82.8 1 83.1 1.7 83.5 2.3 83.9 2.9 84.3 3.6 84.5 3.9 84.7 4.3 85.4 5.6 86.2 7L87.6 9.4 87.3 10C86.4 11.6 86.2 11.7 85.7 10.9 85.4 10.2 85.1 9.8 83 6.4 82.2 4.9 81.4 3.7 81.4 3.7 81.4 3.6 81 3 80.5 2.2 80 1.3 79.7 0.6 79.7 0.6 79.9 0.2 82.5 0.5 82.7 0.9M98.8 0.5C98.8 0.6 97.9 2.1 96.7 4 95.6 5.8 94.6 7.5 94.5 7.7 94.4 7.9 93.5 9.4 92.4 11.2L90.5 14.4 90.4 18.4 90.4 22.4 89.1 22.4 87.9 22.4 87.9 18.4 87.9 14.4 89 12.4C89.6 11.3 90.3 10.1 90.5 9.8 90.6 9.5 90.9 9 91.1 8.7 91.3 8.4 91.7 7.6 92.1 6.9 92.5 6.2 93.3 4.9 93.9 4 94.4 3.1 95.1 1.9 95.4 1.4L96 0.4 97.4 0.4C98.1 0.4 98.8 0.5 98.8 0.5M113.4 0.7C115.1 1.3 116.8 2.8 117.5 4.6 118 5.7 118.1 6.1 118.1 7.4 118.1 10.2 116.8 12.5 114.7 13.5 114.2 13.8 113.8 14.1 113.8 14.1 113.8 14.3 115.4 17.1 116.8 19.1 117.3 19.9 117.8 20.6 117.8 20.7 117.8 20.7 118 21.1 118.3 21.5 118.9 22.5 119 22.4 117.3 22.4L115.9 22.4 114.9 20.9C114.3 20.1 113.8 19.3 113.7 19.1 113.7 19 112.8 17.7 111.9 16.3 110.3 13.8 109.4 12.4 109.4 12.2 109.4 12.1 110.1 12.1 110.9 12.1 115.8 12.1 117.3 5.4 112.9 3.2 112 2.8 105.6 2.5 105 2.9 104.8 3 104.8 4 104.8 7.5L104.9 12 105.5 12.1C106.1 12.2 107.4 13.8 107.4 14.4 107.4 14.4 106.9 14.4 106.1 14.5L104.9 14.5 104.8 18.4 104.7 22.4 103.4 22.4 102.1 22.4 102.1 11.4 102.1 0.4 107.3 0.4C111.7 0.4 112.7 0.5 113.4 0.7M125.3 11.4L125.3 22.4 124 22.4 122.7 22.4 122.6 11.6C122.6 5.7 122.6 0.8 122.7 0.6 122.7 0.5 123.2 0.4 124 0.4L125.3 0.4 125.3 11.4M139.6 0.6C139.6 0.8 138.7 3.1 137.4 6.5 135.9 10.5 135.8 10.7 135.5 11.4 135.4 11.7 134.4 14.1 133.4 16.9 132.3 19.6 131.4 22 131.3 22.1 131.2 22.3 130.8 22.4 130 22.4 128.5 22.5 128.4 22.4 128.7 21.8 128.8 21.6 129.5 19.9 130.2 18.2 130.9 16.4 131.6 14.8 131.7 14.4 131.9 14.1 132 13.7 132.1 13.5 132.2 13.3 132.4 12.8 132.6 12.4 132.8 12 132.9 11.5 132.9 11.4 132.9 11.3 133 11.1 133.1 11 133.2 10.9 133.5 10.2 133.8 9.4 134.1 8.7 134.5 7.6 134.7 7.2 134.9 6.7 135.6 5 136.3 3.4L137.5 0.4 138.5 0.4C139.1 0.4 139.6 0.5 139.6 0.6M169.9 0.7C174.9 2.4 176.3 8.6 172.6 12.7 171.2 14.1 170.4 14.3 165.8 14.4L161.7 14.5 161.6 18.4 161.5 22.4 160.3 22.4 159 22.4 159 17.3 159 12.2 164.1 12.1C169.6 12 169.7 12 170.6 11 172.5 9 172.4 5.7 170.4 3.9 169.3 2.8 169 2.8 165.1 2.8L161.7 2.9 161.6 5.9 161.5 9 160.3 9 159 9 159 4.7 158.9 0.4 164 0.4C168.3 0.4 169.2 0.5 169.9 0.7M190.5 1.1C195.5 3.6 195.7 11.4 190.8 13.6 190.4 13.8 190 14 190 14 189.9 14.1 190.4 15 191.5 16.8 192.2 17.7 192.9 18.9 193.2 19.4 193.6 19.9 194.1 20.7 194.4 21.2 195.1 22.4 195.1 22.4 193.5 22.4L192.1 22.4 191.3 21.2C190.9 20.6 189.9 18.9 189 17.6 188.2 16.3 187.1 14.5 186.6 13.8 185.4 12.1 185.4 12.1 187.2 12.1 188.4 12.1 188.8 12 189.4 11.7 192.6 10.1 192.4 4.5 189 3.1 188.1 2.7 181.5 2.6 181.1 3 180.9 3.2 180.8 11.3 181 11.8 181.1 12 181.3 12.1 181.7 12.1 182.2 12.1 182.3 12.2 183 13.2L183.8 14.4 182.6 14.4C180.8 14.5 180.9 14.2 180.9 18.6L180.9 22.4 179.7 22.4 178.5 22.4 178.5 11.6C178.5 5.7 178.5 0.8 178.5 0.6 178.6 0.5 179.7 0.4 184 0.5L189.4 0.5 190.5 1.1M239.2 1.6L239.3 2.8 230.2 2.8 221.1 2.8 221.1 1.7C221.1 1.1 221.2 0.6 221.2 0.5 221.3 0.5 225.3 0.5 230.3 0.5L239.2 0.5 239.2 1.6M312.3 8.8L312.3 17.1 310.9 17.1 309.6 17.1 309.6 8.8 309.6 0.4 310.9 0.4 312.3 0.4 312.3 8.8M31.9 3.7C31.7 3.9 31.6 4.2 31.6 4.3 31.6 4.5 31.5 4.6 31.4 4.7 31.3 4.7 31.3 5 31.3 5.2 31.3 5.4 31.2 5.6 31.1 5.7 30.8 6 30.8 7.1 31 7.6 31.3 8.1 31.7 9.2 32.1 10.1 32.2 10.3 32.3 10.7 32.4 10.9 32.5 11.2 32.7 11.6 32.8 11.9 32.9 12.3 33.1 12.8 33.2 13 33.3 13.3 33.4 13.6 33.4 13.7 33.4 13.7 32.2 13.8 30.7 13.8L27.9 13.9 27.6 14.6C27.5 15 27.3 15.4 27.2 15.5 26.8 16.1 27.5 16.3 30.9 16.3L34.2 16.3 34.9 18C35.3 18.9 35.7 19.9 35.9 20.3 36 20.6 36.2 21 36.3 21.2 36.3 21.4 36.5 21.8 36.6 22 36.9 22.7 37.1 22.8 38.6 22.8 40.1 22.8 40.2 22.6 39.7 21.3 39 19.8 38.9 19.6 38.7 19.1 38.6 18.9 38.5 18.5 38.4 18.3 38 17.2 37.6 16.2 37.4 15.9 37.3 15.7 37.3 15.5 37.3 15.4 37.3 15.2 37.2 15.1 37.1 15.1 37 15.1 36.9 15 36.9 14.8 36.9 14.7 36.8 14.2 36.6 13.8 36.1 12.7 35.7 11.7 35.4 11 35.3 10.6 35 10 34.7 9.3 34.6 8.9 34.1 7.8 33.7 6.8 33.3 5.7 32.8 4.6 32.7 4.4 32.5 4.1 32.4 3.8 32.4 3.7 32.4 3.3 32.2 3.4 31.9 3.7M140.7 3.7C140.7 3.9 140.4 4.6 140.1 5.4L139.6 6.7 140.4 8.6C141.4 11.1 141.4 11.2 141.6 11.6 141.8 12.3 142.1 13 142.3 13.3 142.4 13.5 142.4 13.6 142.4 13.7 142.4 13.7 141.2 13.8 139.7 13.8L137 13.8 136.8 14.2C136.3 15.3 136.2 15.4 136.3 15.8L136.4 16.2 139.7 16.3C142.5 16.3 143.2 16.4 143.3 16.6 143.4 16.9 143.7 17.5 143.9 18.1 144 18.3 144.1 18.7 144.2 19 144.3 19.2 144.5 19.6 144.6 19.8 144.7 20 144.9 20.5 145.1 21 145.3 21.4 145.4 21.8 145.4 21.9 145.4 22.5 146.1 22.8 147.3 22.8 149 22.8 149.1 22.6 148.6 21.3 148.5 21.1 148.4 20.8 148.3 20.6 148.2 20.4 148.1 20 147.9 19.7 147.8 19.4 147.7 19 147.6 18.9 147.5 18.7 147.4 18.3 147.2 17.9 147.1 17.6 146.5 16.3 146 15 145.5 13.7 144.9 12.3 144.7 11.8 144.4 11.3 144.3 10.9 144.3 10.8 144.3 10.8 144.1 10.4 143.9 10 143.7 9.5 143.5 9 143.4 8.9 143.4 8.7 143.2 8.3 143.1 8 142.9 7.5 142.6 6.9 142.4 6.3 142.1 5.6 141.9 5 141.7 4.7 141.7 4.6 141.6 4.3 141.6 4.2 141.6 3.7 140.9 3.3 140.7 3.7M32.9 5.6C33.3 6.6 33.8 7.7 34 8.2 34.2 8.6 34.6 9.7 34.9 10.4 35.2 11.2 35.5 11.9 35.6 12 35.7 12.1 35.8 12.3 35.8 12.4 35.8 12.5 35.9 13 36.1 13.4 36.3 13.8 36.5 14.3 36.6 14.5 36.7 14.7 36.8 15 36.9 15.3 37.7 16.9 39.7 22.2 39.7 22.3 39.6 22.4 39 22.4 38.3 22.4L37 22.4 36 20C35.5 18.6 34.9 17.2 34.7 16.7L34.4 15.9 31 15.9C27.2 15.9 27.4 16 27.9 14.6L28.1 13.9 30.8 13.9C33.8 13.9 33.8 13.9 33.6 13.3 33.4 12.8 33.2 12.4 33 11.7 32.9 11.5 32.7 11.2 32.6 10.9 31.2 7.6 30.8 6.1 31.3 5.9 31.4 5.8 31.4 5.6 31.4 5.5 31.4 5.2 32.1 3.7 32.2 3.8 32.2 3.8 32.5 4.6 32.9 5.6M141.8 5.4C142 5.9 142.2 6.4 142.3 6.5 142.4 6.6 142.4 6.8 142.4 6.9 142.4 7 142.6 7.5 142.8 7.9 143.4 9.2 143.5 9.6 144.9 12.9 145.6 14.6 146.2 16.3 146.4 16.6 146.5 16.9 146.7 17.3 146.8 17.5 146.8 17.7 147 18.1 147.2 18.4 147.8 20 148.6 22 148.6 22.2 148.6 22.4 148.3 22.4 147.3 22.4L146 22.4 145.6 21.7C145.4 21.3 145.3 20.9 145.3 20.8 145.3 20.7 145.1 20.4 144.9 20 144.8 19.6 144.6 19.2 144.6 19.1 144.6 18.9 144.5 18.8 144.5 18.7 144.4 18.6 144.1 18 143.8 17.3L143.3 16 139.9 16 136.4 15.9 136.5 15.5C136.6 15.2 136.7 14.8 136.9 14.5L137.1 13.9 139.8 13.9C143 13.9 142.8 14.1 141.9 11.7 140.2 7.4 139.9 6.7 140 6.4 140.8 3.7 141.1 3.5 141.8 5.4M206.5 4.2C200.1 6.2 199.4 15.2 205.4 18.1 206.9 18.8 208.4 19.1 208.6 18.8 209.1 18 208.6 16.9 207.8 16.9 204.7 16.9 202.1 12.1 203.6 9 206 4 213.4 5.1 214.2 10.6L214.4 11.4 215.2 11.4C216.2 11.5 216.3 11.3 216.1 10.2 215.1 5.7 210.6 2.9 206.5 4.2M228.9 5.5C228.4 5.7 228.4 22.3 228.9 22.6 229.3 22.8 231 22.8 231.4 22.6 231.9 22.4 232 5.7 231.5 5.5 231.2 5.4 229.3 5.4 228.9 5.5M231.4 5.7C231.6 5.8 231.6 7.6 231.6 14.1L231.5 22.4 230.3 22.4 229 22.4 229 14.2C228.9 9.7 229 5.9 229 5.8 229.1 5.6 231 5.5 231.4 5.7M208 7.7C207.9 7.7 207.6 7.8 207.4 7.8 205.5 8.3 204.4 11.1 205.3 13 205.9 14.3 207.4 13.5 206.9 12.2 206.5 10.9 207.2 9.8 208.5 9.6 209.9 9.5 210.9 11 210.2 12.4 210 12.8 210.1 12.8 210.7 13.4L211.3 14 211.7 13.5C213.4 11.4 211.9 7.9 209.1 7.7 208.6 7.6 208.1 7.6 208 7.7M240.4 12.5C239.9 13 241 16.3 242.2 18.1 243.7 20.4 246 22 248.5 22.6 252.3 23.5 256.6 21.8 259 18.6 259.7 17.6 260 17.2 260.5 15.9 260.6 15.7 260.7 15.4 260.8 15.2 260.9 15.1 260.9 14.8 260.9 14.6 260.9 14.3 261 14.1 261.1 14 261.2 13.9 261.3 13.5 261.2 13.2L261.2 12.5 259.7 12.5 258.2 12.5 257.9 13.7C256.7 18.2 252.4 21.1 249 19.7 246.9 18.9 245.2 17.5 244.4 15.9 244.2 15.5 244 15.1 243.9 14.9 243.8 14.7 243.8 14.4 243.8 14.2 243.8 14 243.7 13.8 243.6 13.7 243.5 13.6 243.4 13.3 243.4 13L243.4 12.5 241.9 12.5C241.1 12.4 240.4 12.5 240.4 12.5M284.9 12.5C284.6 12.9 284.8 14 285.5 15.9 287.6 21.6 294.2 24.4 299.5 21.9 302.7 20.3 305.4 16.5 305.6 13.4L305.7 12.5 304.2 12.5 302.7 12.5 302.5 13.2C302.4 13.6 302.3 14 302.3 14.1 302.3 14.3 302.2 14.6 302.1 14.7 302 14.9 301.8 15.4 301.6 15.9 300.9 17.3 298.3 19.6 297.3 19.6 297.1 19.6 296.9 19.7 296.9 19.8 296.8 19.9 296 19.9 295.2 19.9 294.3 19.9 293.6 19.9 293.5 19.8 293.5 19.7 293.3 19.6 293.1 19.6 291.3 19.6 288.6 16.3 288 13.4 287.9 13.1 287.8 12.8 287.7 12.6 287.6 12.4 285.1 12.3 284.9 12.5M263.7 12.8C263.5 13.1 264.4 16.1 264.9 16.9 265.1 17.2 265.3 17.6 265.4 17.8 267.6 22.2 274.1 24.1 278.9 21.7 279.3 21.5 279.7 21.3 279.7 21.2 279.8 21.2 279.9 21.1 280 21.1 280.3 21.1 282.3 19.1 282.7 18.4 283.1 17.5 283 17.4 281.8 16.7L280.6 16.1 280.3 16.5C279.3 18 277.3 19.6 276.4 19.6 276.3 19.6 276.1 19.7 276 19.8 276 19.9 275.2 19.9 274.3 19.9 273.3 19.9 272.6 19.9 272.5 19.8 272.5 19.7 272.3 19.6 272.1 19.6 271.1 19.6 268.5 17.4 267.8 15.8 267.6 15.4 267.3 14.9 267.2 14.7 267.2 14.6 267.1 14.3 267.1 14.1 267.1 13.9 267 13.6 266.9 13.5 266.9 13.3 266.8 13.1 266.7 12.9 266.6 12.6 263.9 12.4 263.7 12.8M243.4 13.8C245.5 22.1 255.9 22.3 258.1 14L258.4 12.9 259.6 12.8C261.2 12.7 261.3 13 260.5 15.2 260.2 16 259.7 17.1 259.6 17.3 259.6 17.3 259.4 17.6 259.3 17.8 257.4 21.4 251.5 23.6 247.5 22 243.8 20.6 240.6 16.6 240.6 13.3L240.6 12.8 241.9 12.8 243.1 12.9 243.4 13.8M266.7 13.7C268.3 20.6 276.4 22.5 280.4 16.9L280.7 16.4 281.5 16.9C283.1 17.7 283 18 281.3 19.8 276 25.1 267 22.6 264.4 15 263.6 12.9 263.7 12.8 265.3 12.8L266.5 12.8 266.7 13.7M287.7 13.4C287.8 13.8 287.9 14.1 287.9 14.2 287.9 15.6 290.4 18.6 292.2 19.5 293.6 20.2 296.7 20.3 298.2 19.6 300.4 18.5 302.2 16 302.7 13.2 302.8 12.8 302.8 12.8 304.1 12.8L305.4 12.8 305.4 13.2C305.4 13.5 305.3 14.2 305.1 14.8 301.7 25.5 287.8 25 285.2 14.1 284.8 12.7 284.8 12.8 286.2 12.8L287.5 12.8 287.7 13.4M42.9 20C42.7 20.2 42.7 22.1 42.9 22.4 43.2 22.8 57.7 23 58.1 22.6 58.2 22.4 58.3 21.9 58.3 21.2L58.3 19.9 50.6 19.9C46.4 19.9 42.9 20 42.9 20M309.4 21.2C309.4 22.9 308.8 22.8 317.2 22.8 325.6 22.8 324.9 22.9 324.9 21.2L324.9 19.9 317.2 19.9 309.4 19.9 309.4 21.2M58.1 21.2L58 22.4 50.6 22.4 43.1 22.4 43.1 21.3 43.1 20.1 50.6 20.1 58.1 20.1 58.1 21.2M324.7 21.2L324.7 22.4 317.2 22.4 309.7 22.4 309.6 21.2 309.6 20.1 317.2 20.1 324.8 20.1 324.7 21.2" class="icon"/>
  </g>
</svg>
